<svg version="1.1" xmlns="http://www.w3.org/2000/svg" xmlns:xlink="http://www.w3.org/1999/xlink" width="1830.2822265625" height="1261"><defs/><g><g transform="translate(-126,-21) scale(1,1)"><rect fill="#C0C0C0" stroke="none" x="143" y="271" width="649.34521484375" height="102" opacity="0.2"/></g><g transform="translate(-126,-21) scale(1,1)"><rect fill="#ffffff" stroke="none" x="136" y="264" width="649.34521484375" height="102"/></g><g transform="translate(-126,-21) scale(1,1)"><path fill="none" stroke="#000000" d="M 136 264 L 785.34521484375 264 L 785.34521484375 366 L 136 366 L 136 264 Z Z" stroke-miterlimit="10"/></g><g transform="translate(-126,-21) scale(1,1)"><path fill="none" stroke="#000000" d="M 136 289 L 785.34521484375 289" stroke-miterlimit="10"/></g><g transform="translate(-126,-21) scale(1,1)"><path fill="none" stroke="#000000" d="M 136 299 L 785.34521484375 299" stroke-miterlimit="10"/></g><g transform="translate(-126,-21) scale(1,1)"><g><path fill="none" stroke="none"/><text fill="#000000" stroke="none" font-family="Arial" font-size="13px" font-style="normal" font-weight="bold" text-decoration="none" x="405.759033203125" y="283.5">CompiledCardRule</text></g></g><g transform="translate(-126,-21) scale(1,1)"><g><path fill="none" stroke="none"/><text fill="#000000" stroke="none" font-family="Arial" font-size="13px" font-style="normal" font-weight="normal" text-decoration="none" x="141" y="316.5">+CompiledCardRule(lambdaStatements: List&lt;LambdaStatement&gt;, lambdaEffect: LambdaEffect, t: TriggerType)</text></g></g><g transform="translate(-126,-21) scale(1,1)"><g><path fill="none" stroke="none"/><text fill="#000000" stroke="none" font-family="Arial" font-size="13px" font-style="normal" font-weight="normal" text-decoration="none" x="141" y="331.5">+execute(moveData: MoveData, buildData: BuildData, simulate: boolean): boolean</text></g></g><g transform="translate(-126,-21) scale(1,1)"><g><path fill="none" stroke="none"/><text fill="#000000" stroke="none" font-family="Arial" font-size="13px" font-style="normal" font-weight="normal" text-decoration="none" x="141" y="346.5">+applyEffect(moveData: MoveData, buildData: BuildData): boolean</text></g></g><g transform="translate(-126,-21) scale(1,1)"><g><path fill="none" stroke="none"/><text fill="#000000" stroke="none" font-family="Arial" font-size="13px" font-style="normal" font-weight="normal" text-decoration="none" x="141" y="361.5">+getTrigger(): TriggerType</text></g></g><g transform="translate(-126,-21) scale(1,1)"><rect fill="#C0C0C0" stroke="none" x="855" y="279" width="125.34619140625" height="75" opacity="0.2"/></g><g transform="translate(-126,-21) scale(1,1)"><rect fill="#ffffff" stroke="none" x="848" y="272" width="125.34619140625" height="75"/></g><g transform="translate(-126,-21) scale(1,1)"><path fill="none" stroke="#000000" d="M 848 272 L 973.34619140625 272 L 973.34619140625 347 L 848 347 L 848 272 Z Z" stroke-miterlimit="10"/></g><g transform="translate(-126,-21) scale(1,1)"><path fill="none" stroke="#000000" d="M 848 310 L 973.34619140625 310" stroke-miterlimit="10"/></g><g transform="translate(-126,-21) scale(1,1)"><g><path fill="none" stroke="none"/><text fill="#000000" stroke="none" font-family="Arial" font-size="13px" font-style="normal" font-weight="normal" text-decoration="none" x="867.30908203125" y="289.5">«enumeration»</text></g></g><g transform="translate(-126,-21) scale(1,1)"><g><path fill="none" stroke="none"/><text fill="#000000" stroke="none" font-family="Arial" font-size="13px" font-style="normal" font-weight="bold" text-decoration="none" x="876.23388671875" y="304.5">TriggerType</text></g></g><g transform="translate(-126,-21) scale(1,1)"><g><path fill="none" stroke="none"/><text fill="#000000" stroke="none" font-family="Arial" font-size="13px" font-style="normal" font-weight="normal" text-decoration="none" x="853" y="327.5">MOVE</text></g></g><g transform="translate(-126,-21) scale(1,1)"><g><path fill="none" stroke="none"/><text fill="#000000" stroke="none" font-family="Arial" font-size="13px" font-style="normal" font-weight="normal" text-decoration="none" x="853" y="342.5">BUILD</text></g></g><g transform="translate(-126,-21) scale(1,1)"><path fill="none" stroke="#000000" d="M 786 311 L 847 310" stroke-miterlimit="10"/></g><g transform="translate(-126,-21) scale(1,1)"><path fill="none" stroke="#000000" d="M 836.9076896678519 314.3755310717234 L 847 310 L 836.769691234191 305.95762661840706" stroke-miterlimit="10"/></g><g transform="translate(-126,-21) scale(1,1)"><g><path fill="none" stroke="none"/><text fill="#000000" stroke="none" font-family="Arial" font-size="13px" font-style="normal" font-weight="normal" text-decoration="none" x="791.13134765625" y="300.5">-trigger</text></g></g><g transform="translate(-126,-21) scale(1,1)"><g><path fill="none" stroke="none"/><text fill="#000000" stroke="none" font-family="Arial" font-size="13px" font-style="normal" font-weight="normal" text-decoration="none" x="821.5" y="328.5">1</text></g></g><g transform="translate(-126,-21) scale(1,1)"><rect fill="#C0C0C0" stroke="none" x="207" y="495" width="379.35400390625" height="72" opacity="0.2"/></g><g transform="translate(-126,-21) scale(1,1)"><rect fill="#ffffff" stroke="none" x="200" y="488" width="379.35400390625" height="72"/></g><g transform="translate(-126,-21) scale(1,1)"><path fill="none" stroke="#000000" d="M 200 488 L 579.35400390625 488 L 579.35400390625 560 L 200 560 L 200 488 Z Z" stroke-miterlimit="10"/></g><g transform="translate(-126,-21) scale(1,1)"><path fill="none" stroke="#000000" d="M 200 526 L 579.35400390625 526" stroke-miterlimit="10"/></g><g transform="translate(-126,-21) scale(1,1)"><g><path fill="none" stroke="none"/><text fill="#000000" stroke="none" font-family="Arial" font-size="13px" font-style="normal" font-weight="normal" text-decoration="none" x="357.5166015625" y="505.5">«interface»</text></g></g><g transform="translate(-126,-21) scale(1,1)"><g><path fill="none" stroke="none"/><text fill="#000000" stroke="none" font-family="Arial" font-size="13px" font-style="normal" font-weight="bold" text-decoration="none" x="336.559814453125" y="520.5">LambdaStatement</text></g></g><g transform="translate(-126,-21) scale(1,1)"><g><path fill="none" stroke="none"/><text fill="#000000" stroke="none" font-family="Arial" font-size="13px" font-style="normal" font-weight="normal" text-decoration="none" x="205" y="543.5">+evaluate(moveData: MoveData, buildData: BuildData): boolean</text></g></g><g transform="translate(-126,-21) scale(1,1)"><rect fill="#C0C0C0" stroke="none" x="607" y="495" width="470.40478515625" height="72" opacity="0.2"/></g><g transform="translate(-126,-21) scale(1,1)"><rect fill="#ffffff" stroke="none" x="600" y="488" width="470.40478515625" height="72"/></g><g transform="translate(-126,-21) scale(1,1)"><path fill="none" stroke="#000000" d="M 600 488 L 1070.40478515625 488 L 1070.40478515625 560 L 600 560 L 600 488 Z Z" stroke-miterlimit="10"/></g><g transform="translate(-126,-21) scale(1,1)"><path fill="none" stroke="#000000" d="M 600 526 L 1070.40478515625 526" stroke-miterlimit="10"/></g><g transform="translate(-126,-21) scale(1,1)"><g><path fill="none" stroke="none"/><text fill="#000000" stroke="none" font-family="Arial" font-size="13px" font-style="normal" font-weight="normal" text-decoration="none" x="803.0419921875" y="505.5">«interface»</text></g></g><g transform="translate(-126,-21) scale(1,1)"><g><path fill="none" stroke="none"/><text fill="#000000" stroke="none" font-family="Arial" font-size="13px" font-style="normal" font-weight="bold" text-decoration="none" x="795.212158203125" y="520.5">LambdaEffect</text></g></g><g transform="translate(-126,-21) scale(1,1)"><g><path fill="none" stroke="none"/><text fill="#000000" stroke="none" font-family="Arial" font-size="13px" font-style="normal" font-weight="normal" text-decoration="none" x="605" y="543.5">+apply(moveData: MoveData, buildData: BuildData, simulate: boolean): boolean</text></g></g><g transform="translate(-126,-21) scale(1,1)"><rect fill="#C0C0C0" stroke="none" x="855" y="655" width="174.10888671875" height="98" opacity="0.2"/></g><g transform="translate(-126,-21) scale(1,1)"><rect fill="#ffffff" stroke="none" x="848" y="648" width="174.10888671875" height="98"/></g><g transform="translate(-126,-21) scale(1,1)"><path fill="none" stroke="#000000" d="M 848 648 L 1022.10888671875 648 L 1022.10888671875 746 L 848 746 L 848 648 Z Z" stroke-miterlimit="10"/></g><g transform="translate(-126,-21) scale(1,1)"><path fill="none" stroke="#000000" d="M 848 686 L 1022.10888671875 686" stroke-miterlimit="10"/></g><g transform="translate(-126,-21) scale(1,1)"><path fill="none" stroke="#000000" d="M 848 709 L 1022.10888671875 709" stroke-miterlimit="10"/></g><g transform="translate(-126,-21) scale(1,1)"><g><path fill="none" stroke="none"/><text fill="#000000" stroke="none" font-family="Arial" font-size="13px" font-style="normal" font-weight="normal" text-decoration="none" x="910.84130859375" y="665.5">«signal»</text></g></g><g transform="translate(-126,-21) scale(1,1)"><g><path fill="none" stroke="none"/><text fill="#000000" stroke="none" font-family="Arial" font-size="13px" font-style="normal" font-weight="bold" text-decoration="none" x="886.27587890625" y="680.5">PlayerLostSignal</text></g></g><g transform="translate(-126,-21) scale(1,1)"><g><path fill="none" stroke="none"/><text fill="#000000" stroke="none" font-family="Arial" font-size="13px" font-style="normal" font-weight="normal" text-decoration="none" x="853" y="703.5">-player: Player</text></g></g><g transform="translate(-126,-21) scale(1,1)"><g><path fill="none" stroke="none"/><text fill="#000000" stroke="none" font-family="Arial" font-size="13px" font-style="normal" font-weight="normal" text-decoration="none" x="853" y="726.5">+PlayerLostSignal(p: Player)</text></g></g><g transform="translate(-126,-21) scale(1,1)"><g><path fill="none" stroke="none"/><text fill="#000000" stroke="none" font-family="Arial" font-size="13px" font-style="normal" font-weight="normal" text-decoration="none" x="853" y="741.5">+getPlayer(): Player</text></g></g><g transform="translate(-126,-21) scale(1,1)"><rect fill="#C0C0C0" stroke="none" x="607" y="655" width="176.0322265625" height="98" opacity="0.2"/></g><g transform="translate(-126,-21) scale(1,1)"><rect fill="#ffffff" stroke="none" x="600" y="648" width="176.0322265625" height="98"/></g><g transform="translate(-126,-21) scale(1,1)"><path fill="none" stroke="#000000" d="M 600 648 L 776.0322265625 648 L 776.0322265625 746 L 600 746 L 600 648 Z Z" stroke-miterlimit="10"/></g><g transform="translate(-126,-21) scale(1,1)"><path fill="none" stroke="#000000" d="M 600 686 L 776.0322265625 686" stroke-miterlimit="10"/></g><g transform="translate(-126,-21) scale(1,1)"><path fill="none" stroke="#000000" d="M 600 709 L 776.0322265625 709" stroke-miterlimit="10"/></g><g transform="translate(-126,-21) scale(1,1)"><g><path fill="none" stroke="none"/><text fill="#000000" stroke="none" font-family="Arial" font-size="13px" font-style="normal" font-weight="normal" text-decoration="none" x="663.802978515625" y="665.5">«signal»</text></g></g><g transform="translate(-126,-21) scale(1,1)"><g><path fill="none" stroke="none"/><text fill="#000000" stroke="none" font-family="Arial" font-size="13px" font-style="normal" font-weight="bold" text-decoration="none" x="638.27587890625" y="680.5">PlayerWonSignal</text></g></g><g transform="translate(-126,-21) scale(1,1)"><g><path fill="none" stroke="none"/><text fill="#000000" stroke="none" font-family="Arial" font-size="13px" font-style="normal" font-weight="normal" text-decoration="none" x="605" y="703.5">-player: Player</text></g></g><g transform="translate(-126,-21) scale(1,1)"><g><path fill="none" stroke="none"/><text fill="#000000" stroke="none" font-family="Arial" font-size="13px" font-style="normal" font-weight="normal" text-decoration="none" x="605" y="726.5">+PlayerWonSignal(p: Player)</text></g></g><g transform="translate(-126,-21) scale(1,1)"><g><path fill="none" stroke="none"/><text fill="#000000" stroke="none" font-family="Arial" font-size="13px" font-style="normal" font-weight="normal" text-decoration="none" x="605" y="741.5">+getPlayer(): Player</text></g></g><g transform="translate(-126,-21) scale(1,1)"><path fill="none" stroke="#000000" d="M 804 561 L 730 647" stroke-miterlimit="10" stroke-dasharray="3"/></g><g transform="translate(-126,-21) scale(1,1)"><path fill="none" stroke="#000000" d="M 733.437662274664 636.5509580302618 L 730 647 L 739.8193827395489 642.0422058721393" stroke-miterlimit="10"/></g><g transform="translate(-126,-21) scale(1,1)"><path fill="none" stroke="#000000" d="M 856 561 L 906 647" stroke-miterlimit="10" stroke-dasharray="3"/></g><g transform="translate(-126,-21) scale(1,1)"><path fill="none" stroke="#000000" d="M 897.2528733623618 640.3300842895042 L 906 647 L 904.5311900674628 636.0985048097942" stroke-miterlimit="10"/></g><g transform="translate(-126,-21) scale(1,1)"><path fill="none" stroke="#000000" d="M 392 366 L 392 488" stroke-miterlimit="10"/></g><g transform="translate(-126,-21) scale(1,1)"><path fill="none" stroke="#000000" d="M 387.790482243984 477.83732514237585 L 392 488 L 396.209517756016 477.83732514237585" stroke-miterlimit="10"/></g><g transform="translate(-126,-21) scale(1,1)"><g><path fill="none" stroke="none"/><text fill="#000000" stroke="none" font-family="Arial" font-size="13px" font-style="normal" font-weight="normal" text-decoration="none" x="401.13134765625" y="468.5">-statements</text></g></g><g transform="translate(-126,-21) scale(1,1)"><g><path fill="none" stroke="none"/><text fill="#000000" stroke="none" font-family="Arial" font-size="13px" font-style="normal" font-weight="normal" text-decoration="none" x="360.58544921875" y="471.5">1..*</text></g></g><g transform="translate(-126,-21) scale(1,1)"><path fill="none" stroke="#000000" d="M 704 366 L 704 488" stroke-miterlimit="10"/></g><g transform="translate(-126,-21) scale(1,1)"><path fill="none" stroke="#000000" d="M 699.790482243984 477.83732514237585 L 704 488 L 708.209517756016 477.83732514237585" stroke-miterlimit="10"/></g><g transform="translate(-126,-21) scale(1,1)"><g><path fill="none" stroke="none"/><text fill="#000000" stroke="none" font-family="Arial" font-size="13px" font-style="normal" font-weight="normal" text-decoration="none" x="712.13134765625" y="468.5">-effect</text></g></g><g transform="translate(-126,-21) scale(1,1)"><g><path fill="none" stroke="none"/><text fill="#000000" stroke="none" font-family="Arial" font-size="13px" font-style="normal" font-weight="normal" text-decoration="none" x="687.5" y="472.5">1</text></g></g><g transform="translate(-126,-21) scale(1,1)"><rect fill="#C0C0C0" stroke="none" x="935" y="839" width="489.84765625" height="57" opacity="0.2"/></g><g transform="translate(-126,-21) scale(1,1)"><rect fill="#ffffff" stroke="none" x="928" y="832" width="489.84765625" height="57"/></g><g transform="translate(-126,-21) scale(1,1)"><path fill="none" stroke="#000000" d="M 928 832 L 1417.84765625 832 L 1417.84765625 889 L 928 889 L 928 832 Z Z" stroke-miterlimit="10"/></g><g transform="translate(-126,-21) scale(1,1)"><path fill="none" stroke="#000000" d="M 928 857 L 1417.84765625 857" stroke-miterlimit="10"/></g><g transform="translate(-126,-21) scale(1,1)"><path fill="none" stroke="#000000" d="M 928 867 L 1417.84765625 867" stroke-miterlimit="10"/></g><g transform="translate(-126,-21) scale(1,1)"><g><path fill="none" stroke="none"/><text fill="#000000" stroke="none" font-family="Arial" font-size="13px" font-style="normal" font-weight="bold" text-decoration="none" x="1133.54931640625" y="851.5">RuleCompiler</text></g></g><g transform="translate(-126,-21) scale(1,1)"><g><path fill="none" stroke="none"/><text fill="#000000" stroke="none" font-family="Arial" font-size="13px" font-style="normal" font-weight="normal" text-decoration="none" x="933" y="884.5">+compile(model: InternalModel, rule: CardRule, owner: Player): CompiledCardRule</text><path fill="none" stroke="#000000" d="M 933 884.5 L 1410.23583984375 884.5" stroke-miterlimit="10"/></g></g><g transform="translate(-126,-21) scale(1,1)"><rect fill="#C0C0C0" stroke="none" x="471" y="1023" width="621.39013671875" height="256" opacity="0.2"/></g><g transform="translate(-126,-21) scale(1,1)"><rect fill="#ffffff" stroke="none" x="464" y="1016" width="621.39013671875" height="256"/></g><g transform="translate(-126,-21) scale(1,1)"><path fill="none" stroke="#000000" d="M 464 1016 L 1085.39013671875 1016 L 1085.39013671875 1272 L 464 1272 L 464 1016 Z Z" stroke-miterlimit="10"/></g><g transform="translate(-126,-21) scale(1,1)"><path fill="none" stroke="#000000" d="M 464 1041 L 1085.39013671875 1041" stroke-miterlimit="10"/></g><g transform="translate(-126,-21) scale(1,1)"><path fill="none" stroke="#000000" d="M 464 1051 L 1085.39013671875 1051" stroke-miterlimit="10"/></g><g transform="translate(-126,-21) scale(1,1)"><g><path fill="none" stroke="none"/><text fill="#000000" stroke="none" font-family="Arial" font-size="13px" font-style="normal" font-weight="bold" text-decoration="none" x="719.06103515625" y="1035.5">StatementCompiler</text></g></g><g transform="translate(-126,-21) scale(1,1)"><g><path fill="none" stroke="none"/><text fill="#000000" stroke="none" font-family="Arial" font-size="13px" font-style="normal" font-weight="normal" text-decoration="none" x="469" y="1068.5">+compileStatement(model: InternalModel, stm: RuleStatement, owner: Player): LambdaStatement</text><path fill="none" stroke="#000000" d="M 469 1068.5 L 1032.240234375 1068.5" stroke-miterlimit="10"/></g></g><g transform="translate(-126,-21) scale(1,1)"><g><path fill="none" stroke="none"/><text fill="#000000" stroke="none" font-family="Arial" font-size="13px" font-style="normal" font-weight="normal" text-decoration="none" x="469" y="1083.5">-compileHasFlag(stm: RuleStatement, owner: Player): LambdaStatement</text><path fill="none" stroke="#000000" d="M 469 1083.5 L 889.5068359375 1083.5" stroke-miterlimit="10"/></g></g><g transform="translate(-126,-21) scale(1,1)"><g><path fill="none" stroke="none"/><text fill="#000000" stroke="none" font-family="Arial" font-size="13px" font-style="normal" font-weight="normal" text-decoration="none" x="469" y="1098.5">-compileMoveLegth(model: InternalModel, stm: RuleStatement): LambdaStatement</text><path fill="none" stroke="#000000" d="M 469 1098.5 L 947.34033203125 1098.5" stroke-miterlimit="10"/></g></g><g transform="translate(-126,-21) scale(1,1)"><g><path fill="none" stroke="none"/><text fill="#000000" stroke="none" font-family="Arial" font-size="13px" font-style="normal" font-weight="normal" text-decoration="none" x="469" y="1113.5">-compileExistsDeltaMore(model: InternalModel, stm: RuleStatement): LambdaStatement</text><path fill="none" stroke="#000000" d="M 469 1113.5 L 977.65673828125 1113.5" stroke-miterlimit="10"/></g></g><g transform="translate(-126,-21) scale(1,1)"><g><path fill="none" stroke="none"/><text fill="#000000" stroke="none" font-family="Arial" font-size="13px" font-style="normal" font-weight="normal" text-decoration="none" x="469" y="1128.5">-compileExistsDeltaLess(model: InternalModel, stm: RuleStatement): LambdaStatement</text><path fill="none" stroke="#000000" d="M 469 1128.5 L 975.49853515625 1128.5" stroke-miterlimit="10"/></g></g><g transform="translate(-126,-21) scale(1,1)"><g><path fill="none" stroke="none"/><text fill="#000000" stroke="none" font-family="Arial" font-size="13px" font-style="normal" font-weight="normal" text-decoration="none" x="469" y="1143.5">-compileLevelType(model: InternalModel, stm: RuleStatement): LambdaStatement</text><path fill="none" stroke="#000000" d="M 469 1143.5 L 942.28125 1143.5" stroke-miterlimit="10"/></g></g><g transform="translate(-126,-21) scale(1,1)"><g><path fill="none" stroke="none"/><text fill="#000000" stroke="none" font-family="Arial" font-size="13px" font-style="normal" font-weight="normal" text-decoration="none" x="469" y="1158.5">-compileInteractionNum(model: InternalModel, stm: RuleStatement): LambdaStatement</text><path fill="none" stroke="#000000" d="M 469 1158.5 L 971.16943359375 1158.5" stroke-miterlimit="10"/></g></g><g transform="translate(-126,-21) scale(1,1)"><g><path fill="none" stroke="none"/><text fill="#000000" stroke="none" font-family="Arial" font-size="13px" font-style="normal" font-weight="normal" text-decoration="none" x="469" y="1173.5">-compilePositionEquals(model: InternalModel, stm: RuleStatement): LambdaStatement</text><path fill="none" stroke="#000000" d="M 469 1173.5 L 969.017578125 1173.5" stroke-miterlimit="10"/></g></g><g transform="translate(-126,-21) scale(1,1)"><g><path fill="none" stroke="none"/><text fill="#000000" stroke="none" font-family="Arial" font-size="13px" font-style="normal" font-weight="normal" text-decoration="none" x="469" y="1188.5">-compileBuildNum(stm: RuleStatement): LambdaStatement</text><path fill="none" stroke="#000000" d="M 469 1188.5 L 810.75146484375 1188.5" stroke-miterlimit="10"/></g></g><g transform="translate(-126,-21) scale(1,1)"><g><path fill="none" stroke="none"/><text fill="#000000" stroke="none" font-family="Arial" font-size="13px" font-style="normal" font-weight="normal" text-decoration="none" x="469" y="1203.5">-compileBuildDomeExcept(model: InternalModel, stm: RuleStatement): LambdaStatement</text><path fill="none" stroke="#000000" d="M 469 1203.5 L 986.3466796875 1203.5" stroke-miterlimit="10"/></g></g><g transform="translate(-126,-21) scale(1,1)"><g><path fill="none" stroke="none"/><text fill="#000000" stroke="none" font-family="Arial" font-size="13px" font-style="normal" font-weight="normal" text-decoration="none" x="469" y="1218.5">-compileBuildDome(model: InternalModel, stm: RuleStatement): LambdaStatement</text><path fill="none" stroke="#000000" d="M 469 1218.5 L 946.60400390625 1218.5" stroke-miterlimit="10"/></g></g><g transform="translate(-126,-21) scale(1,1)"><g><path fill="none" stroke="none"/><text fill="#000000" stroke="none" font-family="Arial" font-size="13px" font-style="normal" font-weight="normal" text-decoration="none" x="469" y="1233.5">-compileBuildInSameSpot(stm: RuleStatement): LambdaStatement</text><path fill="none" stroke="#000000" d="M 469 1233.5 L 854.8486328125 1233.5" stroke-miterlimit="10"/></g></g><g transform="translate(-126,-21) scale(1,1)"><g><path fill="none" stroke="none"/><text fill="#000000" stroke="none" font-family="Arial" font-size="13px" font-style="normal" font-weight="normal" text-decoration="none" x="469" y="1248.5">-compilePlayerEquals(stm: RuleStatement, owner: Player): LambdaStatement</text><path fill="none" stroke="#000000" d="M 469 1248.5 L 917.69677734375 1248.5" stroke-miterlimit="10"/></g></g><g transform="translate(-126,-21) scale(1,1)"><g><path fill="none" stroke="none"/><text fill="#000000" stroke="none" font-family="Arial" font-size="13px" font-style="normal" font-weight="normal" text-decoration="none" x="469" y="1263.5">-compileStateEquals(stm: RuleStatement): LambdaStatement</text><path fill="none" stroke="#000000" d="M 469 1263.5 L 824.50048828125 1263.5" stroke-miterlimit="10"/></g></g><g transform="translate(-126,-21) scale(1,1)"><rect fill="#C0C0C0" stroke="none" x="1159" y="1023" width="626.96337890625" height="104" opacity="0.2"/></g><g transform="translate(-126,-21) scale(1,1)"><rect fill="#ffffff" stroke="none" x="1152" y="1016" width="626.96337890625" height="104"/></g><g transform="translate(-126,-21) scale(1,1)"><path fill="none" stroke="#000000" d="M 1152 1016 L 1778.96337890625 1016 L 1778.96337890625 1120 L 1152 1120 L 1152 1016 Z Z" stroke-miterlimit="10"/></g><g transform="translate(-126,-21) scale(1,1)"><path fill="none" stroke="#000000" d="M 1152 1041 L 1778.96337890625 1041" stroke-miterlimit="10"/></g><g transform="translate(-126,-21) scale(1,1)"><path fill="none" stroke="#000000" d="M 1152 1051 L 1778.96337890625 1051" stroke-miterlimit="10"/></g><g transform="translate(-126,-21) scale(1,1)"><g><path fill="none" stroke="none"/><text fill="#000000" stroke="none" font-family="Arial" font-size="13px" font-style="normal" font-weight="bold" text-decoration="none" x="1422.974609375" y="1035.5">EffectCompiler</text></g></g><g transform="translate(-126,-21) scale(1,1)"><g><path fill="none" stroke="none"/><text fill="#000000" stroke="none" font-family="Arial" font-size="13px" font-style="normal" font-weight="normal" text-decoration="none" x="1157" y="1068.5">+compileEffect(model: InternalModel, effect: RuleEffect): LambdaEffect</text><path fill="none" stroke="#000000" d="M 1157 1068.5 L 1565.3955078125 1068.5" stroke-miterlimit="10"/></g></g><g transform="translate(-126,-21) scale(1,1)"><g><path fill="none" stroke="none"/><text fill="#000000" stroke="none" font-family="Arial" font-size="13px" font-style="normal" font-weight="normal" text-decoration="none" x="1157" y="1083.5">-compileAllowEffect(model: InternalModel, effect: RuleEffect): LambdaEffect</text><path fill="none" stroke="#000000" d="M 1157 1083.5 L 1593.1982421875 1083.5" stroke-miterlimit="10"/></g></g><g transform="translate(-126,-21) scale(1,1)"><g><path fill="none" stroke="none"/><text fill="#000000" stroke="none" font-family="Arial" font-size="13px" font-style="normal" font-weight="normal" text-decoration="none" x="1157" y="1098.5">-compileSetOpponentPositionEffect(model: InternalModel, effect: RuleEffect): LambdaEffect</text><path fill="none" stroke="#000000" d="M 1157 1098.5 L 1684.998046875 1098.5" stroke-miterlimit="10"/></g></g><g transform="translate(-126,-21) scale(1,1)"><path fill="none" stroke="#000000" d="M 1130 890 L 955 1015" stroke-miterlimit="10" stroke-dasharray="3"/></g><g transform="translate(-126,-21) scale(1,1)"><path fill="none" stroke="#000000" d="M 960.8229761917047 1005.6676397266908 L 955 1015 L 965.7164411855751 1012.5184907181093" stroke-miterlimit="10"/></g><g transform="translate(-126,-21) scale(1,1)"><path fill="none" stroke="#000000" d="M 1214 890 L 1390 1015" stroke-miterlimit="10" stroke-dasharray="3"/></g><g transform="translate(-126,-21) scale(1,1)"><path fill="none" stroke="#000000" d="M 1379.276916183092 1012.5473537850795 L 1390 1015 L 1384.1519174882544 1005.6833519474108" stroke-miterlimit="10"/></g><g transform="translate(-126,-21) scale(1,1)"><rect fill="#C0C0C0" stroke="none" x="1159" y="127" width="495.43994140625" height="385" opacity="0.2"/></g><g transform="translate(-126,-21) scale(1,1)"><rect fill="#ffffff" stroke="none" x="1152" y="120" width="495.43994140625" height="385"/></g><g transform="translate(-126,-21) scale(1,1)"><path fill="none" stroke="#000000" d="M 1152 120 L 1647.43994140625 120 L 1647.43994140625 505 L 1152 505 L 1152 120 Z Z" stroke-miterlimit="10"/></g><g transform="translate(-126,-21) scale(1,1)"><path fill="none" stroke="#000000" d="M 1152 145 L 1647.43994140625 145" stroke-miterlimit="10"/></g><g transform="translate(-126,-21) scale(1,1)"><path fill="none" stroke="#000000" d="M 1152 168 L 1647.43994140625 168" stroke-miterlimit="10"/></g><g transform="translate(-126,-21) scale(1,1)"><g><path fill="none" stroke="none"/><text fill="#000000" stroke="none" font-family="Arial" font-size="13px" font-style="normal" font-weight="bold" text-decoration="none" x="1360.3359375" y="139.5">InternalModel</text></g></g><g transform="translate(-126,-21) scale(1,1)"><g><path fill="none" stroke="none"/><text fill="#000000" stroke="none" font-family="Arial" font-size="13px" font-style="normal" font-weight="normal" text-decoration="none" x="1157" y="162.5">-hardcore: boolean</text></g></g><g transform="translate(-126,-21) scale(1,1)"><g><path fill="none" stroke="none"/><text fill="#000000" stroke="none" font-family="Arial" font-size="13px" font-style="normal" font-weight="normal" text-decoration="none" x="1157" y="185.5">+InternalModel(players: List&lt;String&gt;, factory: CardFactory, hardcore: boolean)</text></g></g><g transform="translate(-126,-21) scale(1,1)"><g><path fill="none" stroke="none"/><text fill="#000000" stroke="none" font-family="Arial" font-size="13px" font-style="normal" font-weight="normal" text-decoration="none" x="1157" y="200.5">+getBoard(): Board</text></g></g><g transform="translate(-126,-21) scale(1,1)"><g><path fill="none" stroke="none"/><text fill="#000000" stroke="none" font-family="Arial" font-size="13px" font-style="normal" font-weight="normal" text-decoration="none" x="1157" y="215.5">+getPlayers(): List&lt;Player&gt;</text></g></g><g transform="translate(-126,-21) scale(1,1)"><g><path fill="none" stroke="none"/><text fill="#000000" stroke="none" font-family="Arial" font-size="13px" font-style="normal" font-weight="normal" text-decoration="none" x="1157" y="230.5">+getPlayerByNick(playerNick: String): Player</text></g></g><g transform="translate(-126,-21) scale(1,1)"><g><path fill="none" stroke="none"/><text fill="#000000" stroke="none" font-family="Arial" font-size="13px" font-style="normal" font-weight="normal" text-decoration="none" x="1157" y="245.5">+getWorkerByID(workerID: String): Worker</text></g></g><g transform="translate(-126,-21) scale(1,1)"><g><path fill="none" stroke="none"/><text fill="#000000" stroke="none" font-family="Arial" font-size="13px" font-style="normal" font-weight="normal" text-decoration="none" x="1157" y="260.5">+packetMoveToMoveData(packetMove: PacketMove): MoveData</text></g></g><g transform="translate(-126,-21) scale(1,1)"><g><path fill="none" stroke="none"/><text fill="#000000" stroke="none" font-family="Arial" font-size="13px" font-style="normal" font-weight="normal" text-decoration="none" x="1157" y="275.5">+packetBuildToBuildData(packetBuild: PacketBuild): BuildData</text></g></g><g transform="translate(-126,-21) scale(1,1)"><g><path fill="none" stroke="none"/><text fill="#000000" stroke="none" font-family="Arial" font-size="13px" font-style="normal" font-weight="normal" text-decoration="none" x="1157" y="290.5">+setWinner(winner: Player): void</text></g></g><g transform="translate(-126,-21) scale(1,1)"><g><path fill="none" stroke="none"/><text fill="#000000" stroke="none" font-family="Arial" font-size="13px" font-style="normal" font-weight="normal" text-decoration="none" x="1157" y="305.5">+getWinner(): Player</text></g></g><g transform="translate(-126,-21) scale(1,1)"><g><path fill="none" stroke="none"/><text fill="#000000" stroke="none" font-family="Arial" font-size="13px" font-style="normal" font-weight="normal" text-decoration="none" x="1157" y="320.5">+addLoser(loser: Player): void</text></g></g><g transform="translate(-126,-21) scale(1,1)"><g><path fill="none" stroke="none"/><text fill="#000000" stroke="none" font-family="Arial" font-size="13px" font-style="normal" font-weight="normal" text-decoration="none" x="1157" y="335.5">+getLosers(): List&lt;Player&gt;</text></g></g><g transform="translate(-126,-21) scale(1,1)"><g><path fill="none" stroke="none"/><text fill="#000000" stroke="none" font-family="Arial" font-size="13px" font-style="normal" font-weight="normal" text-decoration="none" x="1157" y="350.5">+makeMove(m: MoveData): boolean</text></g></g><g transform="translate(-126,-21) scale(1,1)"><g><path fill="none" stroke="none"/><text fill="#000000" stroke="none" font-family="Arial" font-size="13px" font-style="normal" font-weight="normal" text-decoration="none" x="1157" y="365.5">+makeBuild(m: BuildData): boolean</text></g></g><g transform="translate(-126,-21) scale(1,1)"><g><path fill="none" stroke="none"/><text fill="#000000" stroke="none" font-family="Arial" font-size="13px" font-style="normal" font-weight="normal" text-decoration="none" x="1157" y="380.5">+compileStrategy(): void</text></g></g><g transform="translate(-126,-21) scale(1,1)"><g><path fill="none" stroke="none"/><text fill="#000000" stroke="none" font-family="Arial" font-size="13px" font-style="normal" font-weight="normal" text-decoration="none" x="1157" y="395.5">+canMove(player: Player, worker: Worker): boolean</text></g></g><g transform="translate(-126,-21) scale(1,1)"><g><path fill="none" stroke="none"/><text fill="#000000" stroke="none" font-family="Arial" font-size="13px" font-style="normal" font-weight="normal" text-decoration="none" x="1157" y="410.5">+canBuild(player: Player, worker: Worker): boolean</text></g></g><g transform="translate(-126,-21) scale(1,1)"><g><path fill="none" stroke="none"/><text fill="#000000" stroke="none" font-family="Arial" font-size="13px" font-style="normal" font-weight="normal" text-decoration="none" x="1157" y="425.5">+getPossibileMoves(player: Player, worker: Worker): Set&lt;Point&gt;</text></g></g><g transform="translate(-126,-21) scale(1,1)"><g><path fill="none" stroke="none"/><text fill="#000000" stroke="none" font-family="Arial" font-size="13px" font-style="normal" font-weight="normal" text-decoration="none" x="1157" y="440.5">+getPossibileMoves(move: MoveData): Set&lt;Point&gt;</text></g></g><g transform="translate(-126,-21) scale(1,1)"><g><path fill="none" stroke="none"/><text fill="#000000" stroke="none" font-family="Arial" font-size="13px" font-style="normal" font-weight="normal" text-decoration="none" x="1157" y="455.5">+getPossibileBuilds(player: Player, worker: Worker): Set&lt;Point&gt;</text></g></g><g transform="translate(-126,-21) scale(1,1)"><g><path fill="none" stroke="none"/><text fill="#000000" stroke="none" font-family="Arial" font-size="13px" font-style="normal" font-weight="normal" text-decoration="none" x="1157" y="470.5">+getPossibileBuilds(build: BuildData): Set&lt;Point&gt;</text></g></g><g transform="translate(-126,-21) scale(1,1)"><g><path fill="none" stroke="none"/><text fill="#000000" stroke="none" font-family="Arial" font-size="13px" font-style="normal" font-weight="normal" text-decoration="none" x="1157" y="485.5">+getPossibileBuildsAdvanced(p: Player, w: Worker): Map&lt;Point;List&lt;BuildingType&gt;&gt;</text></g></g><g transform="translate(-126,-21) scale(1,1)"><g><path fill="none" stroke="none"/><text fill="#000000" stroke="none" font-family="Arial" font-size="13px" font-style="normal" font-weight="normal" text-decoration="none" x="1157" y="500.5">+getPossibileBuildsAdvanced(build: BuildData): Map&lt;Point;List&lt;BuildingType&gt;&gt;</text></g></g><g transform="translate(-126,-21) scale(1,1)"><path fill="none" stroke="#000000" d="M 1152 176 L 506 176 L 506 264" stroke-miterlimit="10"/></g><g transform="translate(-126,-21) scale(1,1)"><path fill="none" stroke="#000000" d="M 501.790482243984 253.83732514237585 L 506 264 L 510.209517756016 253.83732514237585" stroke-miterlimit="10"/></g><g transform="translate(-126,-21) scale(1,1)"><g><path fill="none" stroke="none"/><text fill="#000000" stroke="none" font-family="Arial" font-size="13px" font-style="normal" font-weight="normal" text-decoration="none" x="515.5" y="171.5">-allowMoveRules</text></g></g><g transform="translate(-126,-21) scale(1,1)"><path fill="none" stroke="#000000" d="M 1152 152 L 472 152 L 472 264" stroke-miterlimit="10"/></g><g transform="translate(-126,-21) scale(1,1)"><path fill="none" stroke="#000000" d="M 467.790482243984 253.83732514237585 L 472 264 L 476.209517756016 253.83732514237585" stroke-miterlimit="10"/></g><g transform="translate(-126,-21) scale(1,1)"><g><path fill="none" stroke="none"/><text fill="#000000" stroke="none" font-family="Arial" font-size="13px" font-style="normal" font-weight="normal" text-decoration="none" x="513.5" y="147.5">-denyMoveRules</text></g></g><g transform="translate(-126,-21) scale(1,1)"><path fill="none" stroke="#000000" d="M 1152 128 L 448 128 L 448 264" stroke-miterlimit="10"/></g><g transform="translate(-126,-21) scale(1,1)"><path fill="none" stroke="#000000" d="M 443.790482243984 253.83732514237585 L 448 264 L 452.209517756016 253.83732514237585" stroke-miterlimit="10"/></g><g transform="translate(-126,-21) scale(1,1)"><g><path fill="none" stroke="none"/><text fill="#000000" stroke="none" font-family="Arial" font-size="13px" font-style="normal" font-weight="normal" text-decoration="none" x="513.5" y="123.5">-winMoveRules</text></g></g><g transform="translate(-126,-21) scale(1,1)"><path fill="none" stroke="#000000" d="M 1096 832 L 1096 216 L 552 216 L 552 264" stroke-miterlimit="10" stroke-dasharray="3"/></g><g transform="translate(-126,-21) scale(1,1)"><path fill="none" stroke="#000000" d="M 547.790482243984 253.83732514237585 L 552 264 L 556.209517756016 253.83732514237585" stroke-miterlimit="10"/></g><g transform="translate(-126,-21) scale(1,1)"><rect fill="#C0C0C0" stroke="none" x="1527" y="839" width="426.2822265625" height="57" opacity="0.2"/></g><g transform="translate(-126,-21) scale(1,1)"><rect fill="#ffffff" stroke="none" x="1520" y="832" width="426.2822265625" height="57"/></g><g transform="translate(-126,-21) scale(1,1)"><path fill="none" stroke="#000000" d="M 1520 832 L 1946.2822265625 832 L 1946.2822265625 889 L 1520 889 L 1520 832 Z Z" stroke-miterlimit="10"/></g><g transform="translate(-126,-21) scale(1,1)"><path fill="none" stroke="#000000" d="M 1520 857 L 1946.2822265625 857" stroke-miterlimit="10"/></g><g transform="translate(-126,-21) scale(1,1)"><path fill="none" stroke="#000000" d="M 1520 867 L 1946.2822265625 867" stroke-miterlimit="10"/></g><g transform="translate(-126,-21) scale(1,1)"><g><path fill="none" stroke="none"/><text fill="#000000" stroke="none" font-family="Arial" font-size="13px" font-style="normal" font-weight="bold" text-decoration="none" x="1694.490234375" y="851.5">MapCompiler</text></g></g><g transform="translate(-126,-21) scale(1,1)"><g><path fill="none" stroke="none"/><text fill="#000000" stroke="none" font-family="Arial" font-size="13px" font-style="normal" font-weight="normal" text-decoration="none" x="1525" y="884.5">+compileMap(players: List&lt;Player&gt;, defaultStrategy: CardFile): void</text><path fill="none" stroke="#000000" d="M 1525 884.5 L 1914.81591796875 884.5" stroke-miterlimit="10"/></g></g><g transform="translate(-126,-21) scale(1,1)"><path fill="none" stroke="#000000" d="M 1319 506 L 1184 831" stroke-miterlimit="10" stroke-dasharray="3"/></g><g transform="translate(-126,-21) scale(1,1)"><path fill="none" stroke="#000000" d="M 1184.0109905630457 820.0000054905685 L 1184 831 L 1191.7859422122924 823.2296007910248" stroke-miterlimit="10"/></g><g transform="translate(-126,-21) scale(1,1)"><path fill="none" stroke="#000000" d="M 1517 506 L 1715 831" stroke-miterlimit="10" stroke-dasharray="3"/></g><g transform="translate(-126,-21) scale(1,1)"><path fill="none" stroke="#000000" d="M 1706.1176506356462 824.5112505234395 L 1715 831 L 1713.307469287894 820.1309917753008" stroke-miterlimit="10"/></g><g transform="translate(-126,-21) scale(1,1)"><path fill="none" stroke="#000000" d="M 1152 120 L 1152 104 L 416 104 L 416 264" stroke-miterlimit="10"/></g><g transform="translate(-126,-21) scale(1,1)"><path fill="none" stroke="#000000" d="M 411.790482243984 253.83732514237585 L 416 264 L 420.209517756016 253.83732514237585" stroke-miterlimit="10"/></g><g transform="translate(-126,-21) scale(1,1)"><g><path fill="none" stroke="none"/><text fill="#000000" stroke="none" font-family="Arial" font-size="13px" font-style="normal" font-weight="normal" text-decoration="none" x="507.2958984375" y="98.5">-allowBuildRules</text></g></g><g transform="translate(-126,-21) scale(1,1)"><path fill="none" stroke="#000000" d="M 1152 120 L 1152 72 L 392 72 L 392 264" stroke-miterlimit="10"/></g><g transform="translate(-126,-21) scale(1,1)"><path fill="none" stroke="#000000" d="M 387.790482243984 253.83732514237585 L 392 264 L 396.209517756016 253.83732514237585" stroke-miterlimit="10"/></g><g transform="translate(-126,-21) scale(1,1)"><g><path fill="none" stroke="none"/><text fill="#000000" stroke="none" font-family="Arial" font-size="13px" font-style="normal" font-weight="normal" text-decoration="none" x="521.13134765625" y="67.5">-denyBuildRules</text></g></g><g transform="translate(-126,-21) scale(1,1)"><path fill="none" stroke="#000000" d="M 1152 120 L 1152 48 L 368 48 L 368 264" stroke-miterlimit="10"/></g><g transform="translate(-126,-21) scale(1,1)"><path fill="none" stroke="#000000" d="M 363.790482243984 253.83732514237585 L 368 264 L 372.209517756016 253.83732514237585" stroke-miterlimit="10"/></g><g transform="translate(-126,-21) scale(1,1)"><g><path fill="none" stroke="none"/><text fill="#000000" stroke="none" font-family="Arial" font-size="13px" font-style="normal" font-weight="normal" text-decoration="none" x="537.13134765625" y="43.5">-winBuildRules</text></g></g></g></svg>